# xmcd
#
# Track frame offsets:
#        150
#        15531
#        28236
#        42444
#        56363
#        74016
#        101701
#        113967
#        128512
#        144088
#        156227
#        178522
#        197722
#        213424
#
# Disc length: 3072 seconds
#
# Revision: 0
# Processed by: cddbd v1.5.2PL0 Copyright (c) Steve Scherf et al.
# Submitted via: ExactAudioCopy v0.95b4
#
DISCID=c50bfe0e
DTITLE=Паша Христова - Една българска роза
DYEAR=2006
DGENRE=Pop
TTITLE0=Нека този миг да спре
TTITLE1=Една българска роза
TTITLE2=Нежност
TTITLE3=Този дивен свят
TTITLE4=Яворова пролет
TTITLE5=Потпури от оперетни мелодии
TTITLE6=Когато си отидеш
TTITLE7=Бяла песен
TTITLE8=Повей, ветре
TTITLE9=Щастливи заедно
TTITLE10=Спри, време
TTITLE11=Янтра
TTITLE12=Остани
TTITLE13=Свърши се (Блика ден)
EXTD=
EXTT0=
EXTT1=
EXTT2=
EXTT3=
EXTT4=
EXTT5=
EXTT6=
EXTT7=
EXTT8=
EXTT9=
EXTT10=
EXTT11=
EXTT12=
EXTT13=
PLAYORDER=
